<?xml version="1.0" encoding="utf-8"?>
<!-- Generator: Adobe Illustrator 27.5.0, SVG Export Plug-In . SVG Version: 6.00 Build 0)  -->
<svg version="1.1" xmlns="http://www.w3.org/2000/svg" xmlns:xlink="http://www.w3.org/1999/xlink" x="0px" y="0px"
	 viewBox="0 0 500 500" style="enable-background:new 0 0 500 500;" xml:space="preserve">
<g id="BACKGROUND">
	<rect style="fill:#FFFFFF;" width="500" height="500"/>
</g>
<g id="OBJECTS">
	<g>
		<path d="M297.292,384.655c3.659-0.274,7.272-0.878,10.86-1.641c6.393-1.36,12.629-3.283,18.866-5.21
			c3.962-1.225,7.73-2.874,11.404-4.789c2.149-1.12,4.082-2.493,5.888-4.09c8.557-7.567,15.2-16.579,20.171-26.829
			c1.042-2.149,1.875-4.416,2.613-6.691c1.639-5.054,1.483-10.12-0.361-15.095c-0.669-1.805-1.517-3.552-2.384-5.274
			c-0.839-1.664-1.827-3.253-2.712-4.895c-0.537-0.995-1.084-1.997-1.489-3.049c-1.037-2.693-1.278-5.38-0.077-8.152
			c1.111-2.563,2.07-5.199,2.973-7.844c2.351-6.892,2.184-13.787-0.436-20.55c-4.21-10.867-11.871-18.492-22.435-23.246
			c-5.218-2.348-10.767-3.474-16.429-4.025c-3.911-0.381-7.838-0.603-11.758-0.897c-2.791-0.209-5.582-0.413-8.372-0.632
			c-1.719-0.135-3.435-0.294-5.18-0.445c-0.043,0.837,0.545,1.266,0.897,1.801c2.092,3.176,4.075,6.404,5.403,9.998
			c1.588,4.296,1.775,8.574,0.022,12.868c-0.277,0.678-0.487,1.385-0.785,2.052c-1.169,2.614-2.357,5.22-3.548,7.824
			c-0.665,1.454-1.439,2.864-2.006,4.354c-0.661,1.738-1.237,3.52-1.689,5.323c-0.518,2.061-0.145,4.042,0.903,5.95
			c2.191-1.222,4.274-2.384,6.398-3.569c0.589-1.702,1.113-3.496,1.822-5.215c2.81-6.817,6.972-12.719,12.324-17.772
			c3.269-3.086,6.972-5.569,11.012-7.539c0.547-0.267,1.08-0.741,1.773-0.49c-0.658,0.535-1.307,1.081-1.979,1.599
			c-5.794,4.468-10.872,9.625-15.054,15.642c-2.445,3.518-4.488,7.25-5.882,11.315c-0.254,0.742-0.604,1.471-0.57,2.381
			c0.364,0.161,0.719,0.323,1.077,0.477c2.966,1.28,4.61,3.552,4.885,6.745c0.137,1.587,0.061,3.193,0.076,4.791
			c0.007,0.646,0.001,1.292,0.001,2.1c0.571-0.215,0.99-0.387,1.418-0.532c1.953-0.664,3.88-1.428,5.868-1.96
			c6.139-1.643,12.342-2.063,18.59-0.616c1.414,0.328,2.866,0.583,4.349,1.49c-1.215-0.099-2.193-0.205-3.173-0.254
			c-5.224-0.261-10.389,0.242-15.497,1.306c-3.661,0.763-7.236,1.821-10.568,3.574c-0.462,0.243-0.888,0.555-1.373,0.862
			c-0.034,2.971-0.594,5.856-0.57,8.893c0.479-0.103,0.793-0.178,1.109-0.236c1.963-0.365,3.915-0.815,5.892-1.071
			c4.484-0.581,8.756,0.253,12.821,2.194c0.308,0.147,0.564,0.406,1.176,0.858c-3.918-0.537-7.416-0.865-10.958-0.537
			c-3.59,0.333-7.109,0.902-10.493,2.14c-0.103,0.443-0.187,0.76-0.25,1.082c-0.566,2.874-1.042,5.769-1.714,8.618
			c-0.826,3.503-1.913,6.931-3.423,10.215c-1.625,3.535-4.004,6.437-7.185,8.67c-1.035,0.727-2.085,1.445-3.187,2.063
			c-3.049,1.709-5.752,3.847-8.207,6.325c-3.385,3.417-7.029,6.533-10.986,9.275c-0.312,0.216-0.576,0.501-1.019,0.892
			c0.649,0.149,1.086,0.319,1.529,0.339c1.597,0.071,3.198,0.158,4.795,0.12c5.173-0.123,10.163-1.258,15.072-2.823
			c9.496-3.026,17.878-7.9,24.999-14.915c3.142-3.096,6.089-6.347,8.621-9.966c0.272-0.389,0.424-0.952,1.016-1.035
			c-0.079,0.3-0.124,0.617-0.263,0.885c-4.955,9.589-11.869,17.336-21.374,22.621c-5.682,3.159-11.707,5.441-18.041,6.914
			c-6.568,1.527-13.158,2.054-19.795,0.466c-0.648-0.155-1.156,0.056-1.705,0.33c-3.335,1.668-6.682,3.314-10.02,4.977
			c-0.271,0.135-0.665,0.194-0.61,0.714c0.205,0.098,0.433,0.22,0.67,0.32c3.561,1.498,7.11,3.025,10.687,4.481
			c3.392,1.38,6.782,2.778,10.231,4.003C286.902,384.377,292.039,385.049,297.292,384.655z"/>
		<path d="M205.617,207.33c-0.549,0.474-1.103,0.943-1.654,1.413c-0.737-0.197-1.377-0.365-2.015-0.54
			c-1.413-0.39-2.822-0.79-4.236-1.174c-5.739-1.559-11.229-0.839-16.477,1.868c-1.3,0.67-2.53,1.477-3.789,2.226
			c-0.871,0.519-1.555,1.226-2.179,2.027c-3.121,4.005-5.88,8.248-8.364,12.67c-0.847,1.507-1.606,3.072-2.299,4.656
			c-2.514,5.752-3.679,11.816-3.939,18.057c-0.248,5.961,0.887,11.659,3.427,17.078c2.045,4.362,4.479,8.482,7.414,12.303
			c1.665,2.167,3.299,4.359,5.013,6.487c3.628,4.503,6.013,9.575,7.053,15.26c0.299,1.635,0.401,3.305,0.62,4.956
			c0.149,1.121,0.344,2.236,0.527,3.352c0.007,0.041,0.097,0.067,0.205,0.137c0.133-0.068,0.344-0.112,0.452-0.241
			c2.038-2.437,3.479-5.186,4.329-8.253c0.269-0.972,0.175-1.774-0.481-2.599c-1.168-1.47-2.015-3.146-2.621-4.92
			c-2.843-8.321-4.02-16.837-2.773-25.594c1.142-8.019,3.834-15.505,8.076-22.407c6.523-10.612,15.566-18.137,27.445-22.089
			c7.676-2.553,15.594-3.454,23.654-3.086c2.66,0.122,5.315,0.396,7.909,1.085c2.65,0.704,5.214,1.629,7.632,2.927
			c0.293,0.157,0.768,0.229,0.715,0.734c-0.506-0.105-1.014-0.194-1.511-0.325c-2.322-0.611-4.669-1.064-7.058-1.354
			c-3.456-0.421-6.919-0.364-10.384-0.35c-4.817,0.019-9.572,0.601-14.274,1.624c-8.232,1.792-15.6,5.32-21.949,10.912
			c-11.228,9.889-19.033,26.926-17.429,43.957c0.015,0.16,0.105,0.314,0.297,0.858c0.152-0.741,0.248-1.097,0.294-1.458
			c0.16-1.255,0.266-2.518,0.459-3.767c0.955-6.163,3.237-11.798,6.839-16.889c1.742-2.462,3.73-4.714,6.175-6.496
			c4.721-3.44,9.919-5.12,15.795-3.958c1.17,0.231,2.319,0.608,3.448,1.003c1.442,0.505,2.854,1.097,4.366,1.686
			c3.118-2.174,6.668-2.372,10.315-1.877c2.125,0.288,4.117,1.059,6.089,1.889c3.99,1.679,8.003,3.304,12.001,4.966
			c1.23,0.511,2.459,1.03,3.654,1.616c1.44,0.706,2.78,1.58,3.95,2.695c1.444,1.376,2.349,3.033,2.736,4.998
			c0.287,1.458,0.303,2.91,0.154,4.377c-0.059,0.58-0.299,1.172,0.108,1.826c0.422-0.09,0.871-0.167,1.311-0.281
			c2.334-0.604,4.699-0.913,7.116-0.921c2.883-0.009,5.722,0.343,8.53,0.93c2.945,0.616,5.786,1.558,8.419,3.058
			c2.558,1.457,4.583,3.415,5.861,6.1c0.156,0.327,0.372,0.625,0.579,0.967c0.172-0.191,0.291-0.274,0.345-0.389
			c1.565-3.313,3.167-6.609,4.666-9.951c0.816-1.82,1.488-3.708,2.168-5.585c0.647-1.786,0.792-3.652,0.526-5.522
			c-0.272-1.92-0.803-3.785-1.631-5.542c-1.451-3.08-3.1-6.047-5.154-8.777c-1.803-2.397-3.541-4.844-5.4-7.196
			c-2.319-2.933-4.4-6.027-6.463-9.138c-0.7-1.055-1.343-2.154-2.116-3.153c-1.099-1.42-2.238-2.819-3.461-4.133
			c-2.198-2.361-4.898-3.866-8.095-4.44c-0.188-0.034-0.361-0.148-0.545-0.226c-0.091-0.193-0.2-0.363-0.255-0.549
			c-0.999-3.328-2.835-6.166-5.178-8.68c-3.417-3.666-7.475-6.4-12.179-8.164c-5.565-2.087-11.317-2.969-17.252-2.773
			c-5.588,0.184-10.965,1.292-16.12,3.477C214.046,200.811,209.677,203.829,205.617,207.33z"/>
		<path d="M181.267,406.19c-0.925-2.709-1.814-5.357-2.735-7.994c-1.84-5.271-4.869-9.734-9.044-13.454
			c-1.639-1.46-3.147-3.073-4.655-4.673c-3.576-3.792-6.185-8.168-7.736-13.153c-1.327-4.266-2.409-8.591-3.022-13.025
			c-0.051-0.37-0.221-0.723-0.37-1.191c-0.594,0.26-1.089,0.436-1.546,0.682c-1.944,1.048-3.769,2.29-5.377,3.796
			c-2.382,2.231-4.678,4.552-7.013,6.832c-0.305,0.298-0.623,0.581-1.007,0.939c-0.03-0.29-0.086-0.429-0.047-0.531
			c0.144-0.372,0.306-0.739,0.486-1.095c2.873-5.704,7.083-10.115,12.72-13.146c0.575-0.309,1.142-0.634,1.584-0.88
			c0.24-3.359,0.467-6.54,0.715-10.002c-1.264-0.121-2.444-0.312-3.628-0.337c-7.61-0.16-14.839,1.357-21.509,5.123
			c-2.144,1.211-4.192,2.589-6.293,3.877c-0.191,0.117-0.383,0.423-0.679,0.153c0.042-0.124,0.05-0.273,0.129-0.357
			c0.593-0.63,1.185-1.263,1.806-1.865c3.485-3.378,7.375-6.122,12.017-7.699c5.834-1.983,11.814-2.596,17.934-1.973
			c0.319,0.032,0.644,0.004,1.083,0.004c0.181-0.63,0.356-1.238,0.537-1.868c-1.272-0.579-2.442-1.055-3.56-1.631
			c-1.785-0.92-3.426-2.075-4.865-3.474c-0.638-0.62-1.321-0.839-2.156-0.754c-0.464,0.047-0.928,0.086-1.389,0.153
			c-2.053,0.295-4.05,0.823-5.966,1.612c-1.785,0.735-3.533,1.56-5.305,2.326c-0.25,0.108-0.546,0.111-0.934,0.183
			c0.15-0.28,0.188-0.422,0.278-0.51c3.054-2.99,6.534-5.246,10.745-6.253c0.421-0.101,0.822-0.29,1.285-0.457
			c-1.27-2.125-2.458-4.125-3.66-6.117c-0.792-1.312-1.569-2.634-2.413-3.912c-1.496-2.262-3.437-4.061-5.821-5.371
			c-0.818-0.449-1.636-0.897-2.453-1.347c-2.9-1.594-5.392-3.68-7.431-6.284c-2.099-2.68-4.033-5.479-5.519-8.55
			c-3.513-7.26-5.886-14.846-6.41-22.945c-0.02-0.306-0.125-0.606-0.193-0.923c-0.334,0.021-0.543-0.016-0.712,0.051
			c-4.523,1.773-8.579,4.287-11.98,7.775c-1.946,1.995-3.21,4.399-3.857,7.121c-0.434,1.825-0.625,3.676-0.642,5.546
			c-0.016,1.733-0.02,3.466-0.006,5.199c0.024,3.19-0.678,6.218-2.076,9.074c-0.79,1.614-1.706,3.167-2.507,4.777
			c-1.127,2.265-2.332,4.503-3.266,6.847c-1.922,4.825-2.803,9.827-2.302,15.061c0.74,7.731,4.255,13.774,10.714,18.073
			c1.55,1.031,3.204,1.907,4.821,2.836c1.675,0.962,3.385,1.865,5.041,2.859c3.741,2.246,6.649,5.313,8.751,9.13
			c0.738,1.341,1.421,2.715,2.068,4.102c0.817,1.75,1.574,3.528,2.354,5.296c1.565,3.546,3.416,6.93,5.678,10.083
			c5.583,7.783,12.408,14.257,20.473,19.421c3.437,2.201,7.068,4.006,10.949,5.288c3.646,1.205,7.372,1.713,11.221,1.469
			c5.433-0.344,10.648-1.652,15.782-3.362C180.646,406.65,180.896,406.421,181.267,406.19z"/>
		<path d="M68.732,160.824c1.891,1.122,3.77,2.266,5.691,3.335c5.841,3.251,11.953,5.871,18.358,7.803
			c6.498,1.959,13.163,2.689,19.919,2.858c5.599,0.14,11.183,0.519,16.699,1.57c4.463,0.85,8.801,2.122,13.001,3.865
			c2.868,1.19,5.419,2.812,7.527,5.134c1.884,2.076,3.713,4.19,5.314,6.494c0.376,0.541,0.766,1.071,1.236,1.728
			c3.213-0.888,6.439-0.92,9.683-0.231c3.208,0.68,6.174,2.007,9.171,3.417c9.187-22.444,23.54-40.176,45.391-51.567
			c-0.782-0.016-1.564-0.062-2.345-0.043c-2.28,0.055-4.497,0.533-6.693,1.094c-9.798,2.503-19.113,6.241-27.993,11.063
			c-3.402,1.848-6.631,3.973-9.638,6.422c-3.177,2.587-5.937,5.554-8.142,9.015c-3.355,5.265-5.06,10.978-4.638,17.263
			c0.018,0.274,0.191,0.622-0.236,0.9c-0.15-0.321-0.33-0.599-0.414-0.903c-1.452-5.22-2.411-10.518-2.473-15.952
			c-0.068-5.891,0.668-11.702,1.809-17.466c0.4-2.023,0.938-4.019,1.441-6.021c0.339-1.347,1.104-2.415,2.268-3.181
			c1.002-0.659,1.982-1.359,3.027-1.94c0.867-0.482,1.415-1.125,1.761-2.055c1.428-3.84,2.271-7.798,2.485-11.886
			c0.408-7.777-0.447-15.433-2.194-23.008c-1.467-6.361-2.967-12.721-3.613-19.234c-0.496-4.996-0.597-9.982,0.889-14.869
			c0.082-0.27-0.007-0.592-0.021-1.032c-0.872,0.202-1.605,0.295-2.281,0.542c-2.014,0.737-3.888,1.745-5.544,3.126
			c-5.252,4.381-9.839,9.382-13.744,14.988c-1.329,1.908-2.538,3.918-3.624,5.976c-2.237,4.241-3.493,8.761-3.593,13.594
			c-0.138,6.694,1.531,12.812,5.73,18.1c1.779,2.24,3.69,4.386,5.654,6.468c2.744,2.909,5.594,5.717,8.398,8.57
			c0.327,0.333,0.647,0.672,0.965,1.014c0.298,0.32,0.364,0.703,0.258,1.114c-0.116,0.451-0.269,0.894-0.375,1.347
			c-0.579,2.462-1.267,4.907-1.692,7.396c-0.595,3.478-1.092,6.98-1.445,10.49c-0.393,3.911-0.65,7.84-0.201,11.775
			c0.242,2.118,0.426,4.243,0.63,6.366c0.023,0.245,0.12,0.548-0.382,0.614c-0.228-0.248-0.486-0.543-0.759-0.823
			c-1.44-1.48-2.799-3.053-4.35-4.406c-1.426-1.244-2.605-2.647-3.681-4.181c-2.415-3.444-4.431-7.13-6.594-10.727
			c-1.269-2.111-2.598-4.194-4.028-6.197c-2.97-4.158-6.873-7.21-11.483-9.39c-4.95-2.341-10.183-3.532-15.624-3.832
			c-4.757-0.262-9.454,0.246-14.076,1.382c-8.431,2.073-16.192,5.69-23.497,10.329c-0.84,0.533-1.608,1.185-2.374,1.824
			c-0.335,0.28-0.719,0.588-0.666,1.203C67.975,160.303,68.338,160.59,68.732,160.824z"/>
		<path d="M157.533,329.829c1.627-3.334,3.823-6.252,6.54-8.762c1.663-1.536,3.388-3.009,5.141-4.442
			c3.196-2.612,6.433-5.173,9.642-7.746c0.049-0.228,0.111-0.419,0.129-0.614c0.226-2.453,0.459-4.906,0.661-7.362
			c0.098-1.193,0.35-2.429,0.151-3.579c-0.456-2.636-1.507-5.073-3.059-7.286c-1.073-0.111-2.062-0.273-3.056-0.305
			c-3.472-0.114-6.922,0.209-10.367,0.592c-1.305,0.145-2.605,0.333-3.907,0.503c0.002-0.488,0.45-0.575,0.759-0.734
			c2.194-1.134,4.474-2.078,6.913-2.493c2.091-0.356,4.215-0.519,6.323-0.778c0.285-0.035,0.683,0.123,0.797-0.464
			c-0.198-0.108-0.398-0.273-0.626-0.331c-1.094-0.278-2.186-0.578-3.295-0.779c-5.736-1.038-11.515-0.938-17.298-0.557
			c-1.811,0.12-3.614,0.345-5.42,0.526c0.476-0.286,0.93-0.617,1.434-0.831c4.032-1.713,8.256-2.544,12.625-2.727
			c2.809-0.118,5.59,0.169,8.374,0.466c0.232,0.025,0.471-0.014,0.951-0.034c-0.645-0.866-1.138-1.553-1.658-2.22
			c-3.457-4.44-6.3-9.242-8.527-14.41c-2.057-4.774-3.119-9.751-3.086-14.959c0.015-2.334,0.105-4.656,0.382-6.98
			c0.823-6.907,2.852-13.412,6.42-19.392c1.944-3.259,3.876-6.534,6.193-9.555c0.175-0.228,0.241-0.539,0.403-0.92
			c-2.188-0.256-4.151-0.06-6.071,0.608c-2.624,0.914-4.902,2.386-6.906,4.295c-2.708,2.58-4.588,5.705-5.861,9.188
			c-0.685,1.873-1.213,3.804-1.769,5.721c-0.248,0.855-0.61,1.552-1.368,2.105c-3.943,2.874-8.021,5.499-12.577,7.32
			c-1.793,0.716-3.572,1.476-5.322,2.291c-4.571,2.129-8.691,4.921-12.242,8.517c-2.857,2.893-4.985,6.241-6.141,10.158
			c-0.242,0.819-0.454,1.703-0.406,2.541c0.419,7.37,1.896,14.523,4.664,21.378c1.776,4.4,3.945,8.592,6.866,12.369
			c1.904,2.461,4.165,4.485,6.901,5.973c0.585,0.318,1.158,0.661,1.753,0.959c3.493,1.752,6.195,4.357,8.244,7.655
			c0.984,1.584,1.889,3.218,2.874,4.802c0.984,1.583,1.948,3.187,3.053,4.685c2.096,2.843,4.795,4.984,8.035,6.41
			c0.594,0.261,1.176,0.65,1.868,0.53c0.078-0.046,0.16-0.066,0.189-0.116C157.09,330.644,157.33,330.246,157.533,329.829z"/>
		<path d="M308.427,423.844c6.795-0.452,12.605-3.121,17.451-7.887c3.277-3.222,5.704-7.018,7.428-11.266
			c2.811-6.928,3.676-14.146,3.064-21.556c-0.147-1.776-0.209-3.587-0.829-5.393c-0.396,0.132-0.772,0.239-1.135,0.38
			c-2.047,0.794-4.051,1.727-6.145,2.369c-5.281,1.618-10.57,3.233-15.916,4.615c-6.588,1.702-13.267,2.941-20.133,2.632
			c-0.156-0.007-0.319,0.137-0.571,0.252c0.243,0.332,0.419,0.604,0.626,0.851c1.339,1.595,2.326,3.407,3.22,5.271
			c0.154,0.321,0.179,0.703,0.253,1.062c-0.211-0.096-0.459-0.159-0.599-0.318c-2.352-2.671-5.196-4.766-8.039-6.857
			c-0.691-0.508-1.443-0.997-2.244-1.277c-1.626-0.567-3.304-0.986-5.013-1.48c-0.804,0.557-1.704,0.968-2.487,1.707
			c0.388,0.395,0.713,0.716,1.026,1.048c1.598,1.696,3.231,3.36,4.778,5.101c2.587,2.909,4.609,6.19,6.136,9.769
			c0.519,1.215,0.964,2.463,1.442,3.695c-0.625,0.129-0.783-0.401-1.01-0.768c-2.259-3.641-5.021-6.89-7.898-10.039
			c-1.796-1.965-3.716-3.817-5.614-5.687c-0.557-0.549-1.113-1.146-1.964-1.407c-0.611,0.368-1.236,0.746-1.861,1.123
			c-1.54,0.927-3.064,1.884-4.625,2.776c-4.49,2.566-9.349,3.781-14.501,3.934c-4.359,0.13-8.637-0.427-12.87-1.419
			c-0.442-0.104-0.9-0.143-1.362-0.214c-0.267,0.389-0.509,0.705-0.712,1.044c-1.548,2.594-3.451,4.904-5.653,6.957
			c-1.509,1.407-3.069,2.764-4.66,4.079c-3.291,2.72-6.831,5.098-10.389,7.45c-0.541,0.357-1.055,0.756-1.617,1.16
			c0.294,0.834,0.857,1.319,1.331,1.854c6.221,7.015,14.037,11.293,23.077,13.509c9.058,2.221,17.84,1.543,26.321-2.4
			c2.051-0.954,4.049-2.024,6.067-3.05c1.899-0.965,3.776-1.978,5.692-2.907c4.165-2.019,8.527-2.504,13.043-1.517
			c2.796,0.611,5.579,1.281,8.37,1.915C302.714,423.592,305.542,424.036,308.427,423.844z"/>
		<path d="M234.571,395.608c0.397-0.52,0.757-1.068,1.246-1.763c-0.568-0.237-0.869-0.379-1.181-0.489
			c-7.021-2.471-13.5-5.997-19.658-10.137c-3.268-2.198-6.34-4.643-9.153-7.41c-4.264-4.193-7.669-9.025-10.608-14.206
			c-4.352-7.671-7.857-15.72-10.661-24.074c-2.655-7.91-4.811-15.936-5.359-24.315c-0.021-0.318-0.131-0.63-0.231-1.084
			c-0.319,0.224-0.552,0.334-0.715,0.51c-1.958,2.106-4.194,3.897-6.407,5.718c-1.903,1.566-3.801,3.142-5.634,4.788
			c-2.657,2.385-4.808,5.176-6.246,8.461c-2.727,6.229-3.714,12.746-3.126,19.514c0.394,4.534,1.489,8.924,2.689,13.294
			c1.534,5.583,4.349,10.422,8.445,14.514c1.037,1.036,2.073,2.073,3.114,3.105c0.993,0.985,2.004,1.953,2.986,2.95
			c2.408,2.445,4.383,5.201,5.715,8.369c1.109,2.636,2.242,5.278,3.105,8c1.82,5.736,5.356,10.058,10.421,13.173
			c4.183,2.572,8.687,3.203,13.447,1.966c2.209-0.574,4.261-1.47,6.185-2.718c4.866-3.157,9.679-6.378,14.035-10.235
			C229.732,401.103,232.336,398.533,234.571,395.608z"/>
		<path d="M67.237,188.911c0.443,0.967,0.933,1.918,1.473,2.835c3.379,5.742,6.848,11.429,10.634,16.915
			c1.97,2.854,4.082,5.599,6.434,8.153c2.816,3.058,5.954,5.725,9.588,7.771c5.981,3.367,12.338,4.424,19.098,3.15
			c4.71-0.888,9.052-2.702,13.15-5.12c5.081-2.998,9.651-6.644,13.621-11.025c0.296-0.326,0.665-0.585,1.011-0.886
			c0.378,0.244,0.671,0.4,0.926,0.605c0.249,0.201,0.459,0.451,0.714,0.708c-0.138,0.494-0.262,0.936-0.386,1.379
			c-0.502,1.795-1.071,3.574-1.492,5.387c-1.328,5.726-1.477,11.477-0.182,17.234c0.093,0.415,0.316,0.8,0.544,1.361
			c1.188-0.797,2.236-1.492,3.275-2.201c0.546-0.373,1.074-0.771,1.583-1.137c0.063-0.416,0.112-0.743,0.163-1.07
			c0.701-4.538,2.17-8.788,4.811-12.578c3.359-4.82,7.929-7.782,13.71-8.899c2.052-0.396,4.11-0.405,6.171-0.266
			c0.988,0.066,1.768-0.096,2.531-0.814c1.859-1.752,4.046-3.026,6.4-4.013c0.418-0.175,0.825-0.374,1.293-0.587
			c-0.294-0.818-0.944-1.213-1.485-1.672c-3.958-3.355-8.392-5.9-13.328-7.494c-3.704-1.197-7.518-1.692-11.431-1.392
			c-1.411,0.109-2.615,0.582-3.57,1.563c-0.971,0.998-1.955,2.027-2.697,3.192c-1.177,1.849-2.154,3.825-3.222,5.744
			c-0.216,0.387-0.458,0.76-0.707,1.17c-1.934-0.776-3.308-1.885-3.633-3.96c-0.031-0.196-0.097-0.388-0.156-0.579
			c-1.286-4.204-2.687-8.368-4.363-12.435c-0.271-0.657-0.407-1.412-1.058-1.908c-0.406,0.08-0.8,0.133-1.18,0.237
			c-4.3,1.185-8.609,2.335-12.892,3.579c-4.737,1.376-9.491,2.622-14.411,3.188c-4.912,0.565-9.549-0.173-13.927-2.508
			c-2.361-1.259-4.558-2.757-6.654-4.409c-4.155-3.276-7.828-7.029-11.081-11.198c-0.405-0.519-0.839-1.015-1.273-1.538
			c-0.325,0.145-0.591,0.212-0.794,0.363c-1.815,1.352-3.643,2.687-5.412,4.098c-0.668,0.533-1.234,1.216-1.767,1.893
			c-1.108,1.405-1.353,3.026-0.924,4.727C66.552,187.312,66.878,188.126,67.237,188.911z"/>
		<path d="M398.496,458.762c-2.229-4.645-3.712-9.554-5.133-14.485c-1.494-5.186-3.047-10.349-5.167-15.326
			c-3.081-7.231-7.438-13.527-13.523-18.56c-0.806-0.667-1.713-1.211-2.645-1.862c-0.759-2.012-1.499-4.154-2.373-6.24
			c-0.895-2.137-1.921-4.22-3.025-6.621c1.818,0.034,3.393-0.126,4.836,0.352c1.271,0.421,2.55,0.748,3.847,1.029
			c5.927,1.283,11.855,2.512,17.955,2.698c4.357,0.133,8.646-0.22,12.89-1.197c4.897-1.127,9.518-3.013,14.057-5.116
			c3.385-1.569,6.734-3.213,10.118-4.782c6.506-3.016,13.227-5.304,20.433-5.917c0.291-0.025,0.567-0.231,0.854-0.354
			c-0.279-1.534-1.201-2.499-2.308-3.264c-1.588-1.098-3.229-2.12-4.871-3.136c-2.791-1.728-5.75-3.071-8.948-3.875
			c-1.743-0.438-3.465-0.964-5.199-1.44c-9.843-2.705-19.386-1.864-28.654,2.389c-3.221,1.478-6.291,3.218-9.175,5.266
			c-3.477,2.469-6.89,5.028-10.346,7.527c-1.728,1.249-3.462,2.492-5.247,3.656c-0.998,0.651-2.11,1.125-3.16,1.7
			c-0.73,0.4-1.504,0.537-2.316,0.437c-2.312-0.284-4.623-0.581-6.933-0.881c-0.778-0.101-1.34-0.514-1.743-1.196
			c-0.304-0.515-0.674-0.992-1.026-1.478c-4.05-5.587-8.64-10.664-14.125-14.888c-0.676-0.521-1.396-0.984-2.111-1.485
			c-1.481,0.958-2.859,1.849-4.222,2.731c0.091,0.186,0.106,0.259,0.15,0.298c0.247,0.221,0.49,0.449,0.755,0.647
			c7.827,5.883,14.07,13.2,19.338,21.393c2.603,4.048,4.719,8.335,6.405,12.853c0.778,2.085,0.97,4.116,0.485,6.257
			c-0.677,2.987-1.327,5.981-1.993,8.97c-1.15,5.159-1.907,10.35-1.422,15.66c0.472,5.168,2.449,9.639,6.05,13.387
			c2.875,2.992,6.355,5.029,10.202,6.49c2.749,1.044,5.595,1.749,8.467,2.331c2.152,0.436,4.326,0.782,6.503,1.076
			c1.464,0.197,2.914,0.064,4.269-0.886c-0.16-0.393-0.289-0.761-0.457-1.111C399.5,460.792,398.986,459.782,398.496,458.762z"/>
		<path d="M190.187,333.829c-3.256-6.151-5.796-12.573-7.285-19.389c-0.268-1.227-0.575-2.446-0.864-3.668
			c0.101,3.48,0.467,6.915,1.163,10.31c2.137,10.425,5.607,20.404,10.076,30.046c2.131,4.598,4.493,9.072,7.266,13.322
			c2.636,4.04,5.702,7.712,9.312,10.919c0.484,0.43,0.903,0.979,1.665,1.147c1.32-4.484,4.316-7.607,8.029-10.116
			c1.374-0.928,2.839-1.758,4.35-2.437c2-0.899,4.059-1.687,6.141-2.379c5.75-1.911,11.536-3.714,17.287-5.62
			c6.724-2.228,13.18-5.057,19.201-8.822c2.548-1.593,4.967-3.358,7.179-5.399c0.233-0.215,0.544-0.412,0.395-0.884
			c-0.232-0.02-0.49-0.07-0.746-0.059c-2.378,0.098-4.583,0.798-6.638,1.975c-1.329,0.761-2.624,1.584-3.955,2.342
			c-2.685,1.528-5.551,1.844-8.496,1.005c-1.398-0.398-2.742-1.011-4.072-1.614c-1.09-0.494-2.119-1.12-3.179-1.681
			c-2.848-1.508-5.795-1.866-8.878-0.786c-0.689,0.242-1.402,0.43-2.117,0.583c-0.582,0.125-1.182,0.208-1.777,0.228
			c-3.169,0.11-5.839-1.119-8.195-3.136c-1.641-1.406-2.924-3.114-3.906-5.02c-1.006-1.951-1.941-3.944-2.811-5.96
			c-1.454-3.37-3.078-6.65-5.014-9.768c-0.451-0.726-0.982-1.436-1.603-2.018c-4.185-3.931-8.596-7.576-13.512-10.579
			c-2.225-1.359-4.286-2.936-6.121-4.799c-0.258-0.262-0.581-0.462-1.028-0.81c-1.058,4.655-3.303,8.416-6.677,11.529
			c0.336,1.551,0.609,3.057,0.991,4.535c1.414,5.48,2.859,10.952,4.308,16.423c0.117,0.442,0.347,0.854,0.525,1.28
			c0,0-0.01-0.01-0.009-0.009C190.534,334.76,190.388,334.21,190.187,333.829z"/>
		<path d="M117.441,74.026c1.435,3.443,2.84,6.899,4.335,10.315c2.117,4.837,4.658,9.438,7.934,13.603
			c1.362,1.732,2.816,3.381,4.52,4.789c0.283,0.234,0.624,0.396,1.024,0.644c0.283-0.751,0.506-1.372,0.75-1.986
			c3.798-9.551,9.623-17.464,18.554-22.833c1.242-0.747,2.182-1.645,2.832-2.96c0.64-1.295,1.326-2.604,2.46-3.665
			c0.867,0.082,1.73,0.131,2.583,0.249c4.159,0.578,8.325,1.096,12.525,1.236c3.138,0.105,6.296,0.071,9.313-0.879
			c7.3-2.298,11.909-7.339,14.197-14.529c1.018-3.197,1.249-6.543,1.067-9.89c-0.112-2.059-0.326-4.119-0.611-6.162
			c-0.423-3.037-1.08-6.03-1.991-8.962c-0.337-1.086-0.742-2.153-1.565-2.977c-0.25-0.251-0.619-0.384-1.003-0.612
			c-0.261,0.621-0.47,1.107-0.671,1.597c-1.537,3.749-3.748,7.066-6.61,9.915c-1.554,1.547-3.209,3.015-4.949,4.348
			c-2.059,1.578-4.243,2.997-6.404,4.44c-1.995,1.332-4.044,2.581-6.043,3.906c-2.95,1.956-5.737,4.12-8.214,6.662
			c-1.922,1.972-3.524,4.173-4.748,6.639c-0.233,0.469-0.533,1.001-0.5,1.484c0.051,0.74-0.257,1.28-0.576,1.862
			c-0.544,0.993-1.068,1.997-1.613,2.989c-0.149,0.271-0.342,0.518-0.478,0.721c-0.206-0.023-0.301-0.005-0.331-0.041
			c-0.335-0.41-0.681-0.813-0.984-1.247c-1.807-2.584-3.937-4.869-6.366-6.874c-9.378-7.739-20.207-11.061-32.278-10.558
			c-0.855,0.036-1.722,0.218-2.545,0.461c-1.032,0.303-1.949,0.84-2.604,1.977c0.893,1.303,1.75,2.489,2.539,3.718
			C113.554,65.402,115.618,69.652,117.441,74.026z"/>
		<path d="M186.376,181.555c-2.799,4.545-5.264,9.261-7.196,14.244c-0.333,0.858-0.608,1.739-0.948,2.716
			c2.829,1.833,5.395,3.83,7.648,6.336c5.855-1.506,11.534-0.868,17.121,1.254c0.571-0.447,1.095-0.846,1.606-1.261
			c5.973-4.86,12.582-8.459,20.138-10.192c0.443-0.102,0.862-0.311,1.277-0.464c0.335-0.796,0.667-1.523,0.952-2.268
			c3.385-8.853,4.733-18.005,3.887-27.448c-0.364-4.058-1.241-8.022-2.691-11.846c-0.569-1.502-1.248-2.945-2.21-4.236
			c-0.677-0.909-1.427-1.747-2.57-2.219c-0.404,0.234-0.817,0.444-1.2,0.699c-3.1,2.074-6.227,4.109-9.283,6.245
			C202.046,160.707,193.31,170.294,186.376,181.555z"/>
		<path d="M295.122,306.082c-2.386,3.232-5.221,6.046-8.387,8.526c-0.51,0.4-1.172,0.667-1.413,1.367
			c0.03,0.194,0.038,0.397,0.094,0.586c1.442,4.913,1.105,9.745-0.689,14.5c-1.648,4.367-4.215,8.149-7.449,11.491
			c-2.14,2.212-4.529,4.128-7.071,5.854c-4.76,3.232-9.86,5.82-15.177,7.997c-4.998,2.046-10.167,3.598-15.297,5.263
			c-3.673,1.192-7.355,2.359-11.016,3.589c-3.046,1.023-5.917,2.419-8.526,4.315c-0.397,0.288-0.938,0.484-1.013,1.19
			c0.297-0.069,0.555-0.104,0.796-0.188c3.614-1.249,7.069-0.894,10.408,0.953c1.223,0.676,2.488,1.281,3.763,1.854
			c3.551,1.595,7.251,2.218,11.111,1.501c1.699-0.316,3.405-0.649,5.062-1.133c5.97-1.745,11.609-4.297,17.108-7.173
			c6.54-3.421,12.457-7.703,17.703-12.904c0.71-0.704,1.434-1.393,2.153-2.088c1.925-1.861,4.036-3.471,6.343-4.837
			c1.432-0.848,2.845-1.736,4.21-2.686c2.626-1.828,4.613-4.216,5.956-7.124c0.446-0.966,0.87-1.947,1.239-2.945
			c1.878-5.081,3.086-10.333,3.854-15.684c0.834-5.808,1.133-11.668,1.557-17.514c0.106-1.46,0.109-2.932,0.071-4.396
			c-0.021-0.789-0.132-1.604-0.369-2.354c-0.793-2.507-3.146-3.762-5.682-3.065c-0.703,0.193-1.37,0.515-2.06,0.762
			c-1.064,0.381-2.135,0.744-3.2,1.124c-0.289,0.103-0.566,0.244-0.785,0.339c0,0.221-0.014,0.288,0.003,0.346
			c0.056,0.192,0.099,0.392,0.189,0.568c1.236,2.436,0.857,4.809-0.401,7.071C297.27,302.872,296.265,304.534,295.122,306.082z"/>
		<path d="M65.64,419.23c4.4,0.099,8.796,0.045,13.166-0.532c7.157-0.945,14.124-2.666,20.878-5.226
			c6.272-2.378,12.083-5.581,17.332-9.772c0.623-0.497,1.284-0.989,1.772-1.607c2.024-2.56,3.803-5.287,5.431-8.186
			c-1.04-1.373-2.073-2.67-3.031-4.021c-0.961-1.355-1.846-2.764-2.891-4.342c-1.397,0.244-2.702,0.47-4.007,0.699
			c-5.191,0.913-10.407,1.527-15.691,1.461c-4.685-0.059-9.296-0.628-13.817-1.87c-4.203-1.155-8.117-2.975-11.86-5.188
			c-0.423-0.25-0.807-0.724-1.479-0.446c-0.139,0.478-0.314,0.98-0.431,1.495c-0.848,3.724-1.123,7.497-0.981,11.311
			c0.1,2.662,0.221,5.33,0.156,7.99c-0.052,2.123-0.263,4.256-0.597,6.354c-0.593,3.727-1.989,7.171-4.022,10.356
			c-0.267,0.417-0.765,0.785-0.511,1.423C65.25,419.165,65.444,419.226,65.64,419.23z"/>
		<path d="M407.567,354.756c-5.751-0.525-11.437-0.217-17.092,0.895c-4.133,0.813-8.089,2.192-11.98,3.769
			c-4.197,1.701-8.43,3.276-12.808,4.474c-1.507,0.413-2.968,0.617-4.502,0.538c-2.195-0.112-4.39-0.212-6.586-0.305
			c-0.588-0.025-1.178-0.004-1.635-0.004c-1.227,1.386-2.337,2.627-3.427,3.884c-0.148,0.171-0.201,0.425-0.337,0.729
			c5.259,0.53,10.368,0.589,15.586,0.058c0.584,0.918,1.06,1.639,1.51,2.377c1.56,2.559,3.072,5.147,4.676,7.677
			c1.354,2.136,2.8,4.214,4.23,6.3c0.291,0.425,0.692,0.775,1.105,1.229c1.199-0.884,2.319-1.712,3.442-2.536
			c3.813-2.796,7.585-5.649,11.451-8.368c4.548-3.199,9.492-5.642,14.814-7.291c6.881-2.132,13.847-2.553,20.904-1.003
			c3.333,0.732,6.502,1.93,9.572,3.406c1.19,0.573,2.385,1.136,3.686,1.756c1.139-1.352,1.937-2.767,2.191-4.459
			c0.202-1.346,0.042-1.677-1.218-2.402c-3.004-1.727-6.087-3.3-9.277-4.656C424.093,357.518,415.991,355.525,407.567,354.756z"/>
		<path d="M259.955,291.697c-0.091,0.592-0.179,1.185-0.266,1.779c-0.949,6.497,0.371,12.459,4.289,17.767
			c1.659,2.247,3.441,4.403,5.282,6.747c4.169-1.475,7.646-3.723,10.481-6.943c1.516-1.723,2.621-3.685,3.38-5.845
			c0.679-1.932,0.829-3.891,0.351-5.897c-0.293-1.23-0.588-2.465-0.771-3.715c-0.315-2.143,0.094-4.108,1.662-5.726
			c0.88-0.909,1.765-1.817,2.598-2.769c0.744-0.85,1.509-1.703,2.109-2.654c1.174-1.862,1.401-3.853,0.443-5.903
			c-0.543-1.162-1.298-2.158-2.265-3.01c-2.654-2.34-5.849-3.396-9.266-3.867c-5.323-0.734-10.634-0.433-15.928,0.361
			c-0.094,0.014-0.167,0.167-0.338,0.35c0.758,1.193,1.372,2.534,1.553,3.993c0.487,3.921,0.097,7.742-1.871,11.234
			C260.657,288.908,260.179,290.241,259.955,291.697z"/>
		<path d="M172.64,141.652c0.462-0.276,0.752-0.422,1.014-0.609c1.842-1.315,3.714-2.59,5.509-3.967
			c5.12-3.928,9.044-8.806,11.509-14.801c2.499-6.077,2.862-12.244,0.792-18.532c-0.919-2.793-2.04-5.489-3.463-8.056
			c-3.145-5.676-6.913-10.901-11.399-15.599c-1.658-1.736-3.382-3.405-5.363-4.772c-0.816-0.563-1.708-1.025-2.597-1.47
			c-0.327-0.164-0.744-0.149-1.19-0.228c-0.474,1.022-0.41,2.014-0.361,3.001c0.109,2.194,0.197,4.39,0.351,6.581
			c0.13,1.858,0.287,3.718,0.526,5.565c0.667,5.152,1.732,10.23,2.906,15.288c1.355,5.835,2.614,11.68,3.06,17.682
			c0.471,6.35,0.335,12.634-1.284,18.832C172.577,140.842,172.64,141.154,172.64,141.652z"/>
		<path d="M114.443,115.625c5.593,4.04,11.902,5.805,18.761,5.724c0.585-0.007,1.169-0.118,1.866-0.192
			c-0.278-1.67-0.62-3.224-0.775-4.796c-0.157-1.586-0.19-3.19-0.165-4.785c0.024-1.584,0.188-3.166,0.294-4.802
			c-4.049-2.761-7.04-6.482-9.703-10.498c-1.731-2.612-3.286-5.332-4.559-8.192c-1.541-3.463-3.02-6.957-4.42-10.48
			c-2.14-5.385-4.45-10.688-7.183-15.8c-0.304-0.568-0.447-1.262-1.162-1.652c-0.121,0.252-0.289,0.472-0.331,0.713
			c-0.181,1.049-0.345,2.101-0.479,3.157c-0.517,4.092-1.01,8.187-1.53,12.279c-0.47,3.695-1.024,7.381-1.43,11.083
			c-0.453,4.128-0.264,8.251,0.605,12.317C105.636,106.279,108.96,111.663,114.443,115.625z"/>
		<path d="M97.399,356.822c-2.488-1.544-5.004-3.043-7.513-4.551c-0.215-0.129-0.479-0.175-0.759-0.273
			c-0.384,0.327-0.747,0.613-1.086,0.927c-7.282,6.747-12.321,14.951-15.704,24.224c-0.128,0.352-0.126,0.751-0.197,1.206
			c0.979,0.467,1.868,0.906,2.769,1.317c7.881,3.588,16.146,5.295,24.809,5.107c3.468-0.076,6.908-0.428,10.333-0.922
			c2.166-0.313,4.314-0.746,6.711-1.168c-0.188-0.574-0.265-0.892-0.393-1.188c-0.712-1.649-1.451-3.286-2.154-4.939
			C110.666,368.229,105.106,361.607,97.399,356.822z"/>
		<path d="M335.515,431.625c2.279-6.424,4.02-12.97,4.371-19.83c0.224-4.385-0.369-8.632-1.818-12.766
			c-0.071-0.202-0.291-0.352-0.467-0.556c-0.096,0.164-0.145,0.217-0.161,0.279c-0.133,0.516-0.268,1.031-0.389,1.55
			c-1.484,6.378-4.525,11.945-8.941,16.735c-5.799,6.29-12.881,9.525-21.577,8.694c-0.318-0.03-0.642-0.004-1.215-0.004
			c0.052,0.887,0.046,1.552,0.135,2.204c0.638,4.663,1.971,9.104,4.276,13.229c1.807,3.233,4.093,6.072,6.982,8.406
			c1.564,1.264,3.252,2.324,5.145,3.028c1.912,0.712,3.863,0.902,5.966,0.444c0.227-0.627,0.461-1.24,0.673-1.86
			c0.775-2.268,1.505-4.553,2.322-6.806C332.361,440.115,334.001,435.892,335.515,431.625z"/>
		<path d="M308.018,223.429c4.539,0.828,8.924,2.175,13.164,3.961c4.292,1.808,8.532,3.74,12.789,5.632
			c4.568,2.03,9.237,3.779,14.046,5.148c2.752,0.783,5.534,1.412,8.339,1.717c4.128-4.424,9.422-15.316,11.354-22.369
			c-0.616,0.12-1.008,0.162-1.377,0.274c-4.09,1.24-8.259,2.034-12.519,2.428c-4.469,0.413-8.911,0.253-13.344-0.365
			c-4.823-0.672-9.529-1.86-14.202-3.202c-1.981-0.569-3.976-1.102-5.984-1.563c-2.032-0.466-4.063-0.547-6.092,0.181
			c-2.003,0.719-4.063,1.278-6.07,1.984c-3.523,1.24-6.907,2.796-10.161,4.632c-0.254,0.143-0.666,0.242-0.441,0.76
			c0.577,0,1.168-0.002,1.759,0C302.215,222.659,305.126,222.902,308.018,223.429z"/>
		<path d="M256.711,259.46c-1.427-0.843-2.928-1.581-4.453-2.23c-4.347-1.85-8.725-3.624-13.087-5.439
			c-1.665-0.693-3.358-1.289-5.146-1.558c-3.613-0.544-6.813,0.154-9.586,2.764c-4.752,4.471-9.658,8.778-14.433,13.224
			c-1.799,1.674-3.471,3.495-5.097,5.341c-1.546,1.755-2.752,3.757-3.688,5.909c-0.939,2.161-1.447,4.406-1.466,6.779
			c-0.028,3.405,0.824,6.583,2.267,9.63c0.1,0.212,0.186,0.527,0.784,0.424c0.461-0.478,1.118-1.045,1.637-1.718
			c1.544-2.001,3.065-4.022,4.538-6.077c2.016-2.814,3.905-5.721,5.99-8.482c1.44-1.906,3.014-3.74,4.715-5.415
			c3.786-3.727,8.288-6.21,13.546-7.218c2.174-0.417,4.37-0.396,6.569-0.312c4.191,0.161,8.378,0.474,12.578,0.307
			c0.53-0.021,1.064,0.038,1.596,0.059c2.078,0.081,3.911,0.734,5.367,2.282c0.125,0.133,0.312,0.208,0.735,0.481
			c0.053-0.941,0.094-1.598,0.127-2.255C260.349,263.087,259.152,260.901,256.711,259.46z"/>
		<path d="M352.381,392.762c-1.199-1.146-2.544-2.154-3.895-3.124c-2.77-1.988-5.793-3.546-8.852-5.034
			c-0.27-0.131-0.602-0.135-1.026-0.223c0,0.596,0.005,1.057-0.001,1.517c-0.021,1.666,0.017,3.336-0.091,4.997
			c-0.072,1.112,0.177,2.056,0.688,3.042c2.529,4.877,3.747,10.08,3.787,15.579c0.029,4.026-0.546,7.969-1.41,11.882
			c-1.255,5.683-3.279,11.111-5.541,16.454c-1.715,4.049-3.499,8.068-5.243,12.104c-0.258,0.596-0.462,1.215-0.81,2.142
			c1.402-0.244,2.196-0.884,2.925-1.534c1.49-1.329,3-2.66,4.321-4.15c4.243-4.789,8.457-9.606,12.57-14.507
			c1.794-2.138,3.39-4.455,4.94-6.781c1.704-2.557,3.09-5.306,3.964-8.265C361.454,407.564,359.412,399.487,352.381,392.762z"/>
		<path d="M367.54,359.339c-0.158,0.243-0.443,0.535-0.064,0.936c0.6-0.191,1.236-0.361,1.848-0.594
			c3.359-1.285,6.716-2.574,10.065-3.884c6.255-2.446,12.713-3.939,19.437-4.224c6.229-0.264,12.381,0.326,18.467,1.65
			c7.941,1.728,15.478,4.468,22.324,8.937c0.249,0.163,0.521,0.289,1.208,0.667c-0.412-0.681-0.542-0.974-0.74-1.209
			c-0.987-1.172-1.943-2.375-2.999-3.483c-4.052-4.251-8.349-8.241-12.95-11.895c-2.614-2.075-5.359-3.963-8.298-5.554
			c-4.077-2.207-8.356-3.798-12.996-4.346c-9.459-1.118-17.673,1.513-24.505,8.175c-1.615,1.575-3.126,3.303-4.428,5.141
			C371.677,352.806,369.643,356.097,367.54,359.339z"/>
		<path d="M216.047,380.229c4.665,3.229,9.581,6.016,14.769,8.313c6.012,2.662,12.258,4.407,18.85,4.834
			c3.35,0.217,6.646-0.055,9.91-0.817c3.152-0.736,5.996-2.173,8.734-3.844c2.386-1.456,4.759-2.933,7.139-4.401
			c0.169-0.104,0.34-0.206,0.655-0.395c-0.51-0.275-0.775-0.445-1.061-0.568c-3.303-1.415-6.592-2.865-9.919-4.219
			c-2.833-1.153-5.719-2.175-8.567-3.292c-0.927-0.364-1.769-0.29-2.702,0.017c-1.83,0.603-3.685,1.148-5.558,1.6
			c-5.778,1.394-11.361,0.898-16.684-1.866c-1.181-0.613-2.369-1.216-3.57-1.789c-1.403-0.67-2.887-1.089-4.448-0.892
			c-3.936,0.497-6.961,2.448-9.037,5.842c-0.03,0.048-0.004,0.131-0.004,0.348C214.999,379.439,215.508,379.856,216.047,380.229z"/>
		<path d="M68.491,165.337c3.035,4.496,6.534,8.621,10.601,12.195c3.451,3.033,7.126,5.814,10.747,8.649
			c1.943,1.521,4.043,2.819,6.266,3.911c2.739,1.345,5.608,2.033,8.675,2.019c3.698-0.017,7.3-0.645,10.85-1.575
			c3.349-0.878,6.646-1.95,9.988-2.855c5.143-1.394,10.304-2.718,15.457-4.074c0.308-0.081,0.68-0.063,0.813-0.582
			c-0.399-0.17-0.8-0.368-1.219-0.515c-7.472-2.629-15.176-4.048-23.081-4.408c-3.329-0.151-6.66-0.272-9.988-0.44
			c-3.4-0.172-6.764-0.641-10.083-1.406c-6.419-1.48-12.416-4.026-18.075-7.351c-3.561-2.091-7.013-4.366-10.514-6.56
			c-0.554-0.348-1.106-0.7-1.726-1.092c-0.089,0.297-0.193,0.473-0.182,0.643c0.021,0.328,0.04,0.684,0.176,0.973
			C67.592,163.708,67.974,164.571,68.491,165.337z"/>
		<path d="M147.637,411.527c0.201-0.307,0.554-0.6,0.29-1.199c-3.829-1.579-7.719-3.29-11.285-5.645
			c-3.615-2.387-6.873-5.212-10.168-8.368c-0.69,1.121-0.841,2.118-1.043,3.083c-0.572,2.734-1.096,5.478-1.636,8.218
			c-1.126,5.714-2.987,11.17-5.691,16.337c-2.571,4.915-6.015,9.088-10.459,12.418c-1.171,0.878-2.389,1.692-3.574,2.552
			c-0.186,0.135-0.312,0.354-0.569,0.655c1.06,0.154,1.905,0.002,2.745-0.148c8.079-1.449,15.623-4.336,22.651-8.553
			c1.649-0.99,3.258-2.087,4.733-3.318C139.144,422.962,143.721,417.527,147.637,411.527z"/>
		<path d="M450.323,384.343c-4.087,0.986-8.053,2.341-11.952,3.907c-4.643,1.865-9.077,4.171-13.568,6.355
			c-3.595,1.748-7.215,3.437-10.965,4.834c-6.309,2.352-12.808,3.572-19.561,3.428c-3.608-0.077-7.175-0.462-10.727-1.058
			c-0.387-0.065-0.78-0.1-1.17-0.148c-0.043,0.123-0.085,0.246-0.128,0.369c1.489,0.988,2.966,1.993,4.469,2.96
			c3.94,2.535,8.122,4.559,12.586,6.011c9.672,3.145,18.936,2.195,27.76-2.798c2.253-1.275,4.422-2.741,6.479-4.316
			c6.23-4.772,11.545-10.458,16.246-16.727c0.478-0.637,0.876-1.335,1.285-2.02c0.16-0.269,0.362-0.579-0.049-0.938
			C450.823,384.242,450.571,384.283,450.323,384.343z"/>
		<path d="M223.189,293.38c0.389,2.846,1.133,5.605,2.051,8.322c0.49,1.45,0.975,2.902,1.438,4.36c0.695,2.19,1,4.41,0.439,6.687
			c-0.043,0.174,0.034,0.378,0.064,0.647c1.128,0.134,2.247,0.238,3.356,0.406c3.365,0.51,6.629,1.432,9.876,2.431
			c3.052,0.938,6.094,1.927,9.185,2.719c3.805,0.975,7.644,1.855,11.627,1.028c1.487-0.309,3.013-0.44,4.783-1.072
			c-0.542-0.734-0.922-1.263-1.317-1.781c-1.291-1.694-2.678-3.323-3.866-5.087c-3.65-5.423-5.013-11.386-3.98-17.869
			c0.026-0.161-0.057-0.339-0.086-0.492c-0.129,0-0.215-0.027-0.258,0.004c-0.644,0.469-1.279,0.952-1.924,1.42
			c-4.261,3.089-8.992,4.562-14.267,4.075c-5.624-0.52-10.757-2.388-15.351-5.697c-0.526-0.379-1.06-0.746-1.777-1.25
			C223.184,292.774,223.149,293.082,223.189,293.38z"/>
		<path d="M115.466,422.668c2.632-5.209,4.404-10.694,5.463-16.421c0.102-0.551,0.175-1.108,0.325-2.068
			c-0.699,0.812-1.134,1.298-1.549,1.801c-7.382,8.964-16.395,15.716-27.173,20.091c-4.135,1.678-8.357,3.1-12.622,4.407
			c-5.216,1.598-10.449,3.147-15.536,5.135c-0.546,0.213-1.09,0.431-1.635,0.647c0.027,0.104,0.055,0.209,0.082,0.313
			c0.119,0.03,0.239,0.089,0.356,0.086c5.357-0.155,10.631,0.506,15.848,1.667c6.076,1.352,12.229,1.851,18.442,1.804
			c1.116-0.008,2.076-0.261,2.946-0.975c2.211-1.815,4.508-3.531,6.66-5.412C110.624,430.637,113.34,426.877,115.466,422.668z"/>
		<path d="M288.805,228.362c1.487,2.454,2.869,4.878,4.753,6.968c1.617,1.794,3.605,2.95,5.985,3.358
			c1.376,0.236,2.768,0.439,4.16,0.506c2.927,0.141,5.859,0.226,8.789,0.257c4.801,0.05,9.588,0.239,14.346,0.938
			c4.424,0.65,8.78,1.573,12.98,3.145c2.953,1.106,5.724,2.529,8.097,4.649c0.184,0.164,0.438,0.25,0.62,0.351
			c2.158-1.576,5.606-5.293,6.744-7.288c-0.539-0.116-1.036-0.244-1.54-0.328c-1.444-0.24-2.9-0.416-4.335-0.701
			c-6.034-1.196-11.824-3.171-17.49-5.535c-3.872-1.615-7.726-3.273-11.625-4.82c-5.529-2.193-11.213-3.833-17.164-4.401
			c-3.058-0.292-6.104-0.312-9.167,0.097C291.932,225.832,290.299,226.643,288.805,228.362z"/>
		<path d="M226.866,277.875c1.763-1.093,3.647-1.928,5.579-2.663c3.618-1.377,7.36-2.328,11.124-3.188
			c4.416-1.009,8.858-1.883,13.411-1.989c0.093-0.002,0.183-0.138,0.384-0.301c-0.721-0.777-1.635-1.096-2.616-1.22
			c-0.723-0.091-1.462-0.091-2.194-0.085c-3.997,0.034-7.989,0.05-11.981-0.273c-2.658-0.215-5.323-0.174-7.941,0.506
			c-4.298,1.116-7.968,3.309-11.109,6.417c-1.9,1.879-3.577,3.952-5.119,6.127c-1.81,2.553-3.575,5.138-5.333,7.728
			c-1.874,2.762-3.862,5.426-6.273,7.752c-0.271,0.262-0.471,0.598-0.726,0.929c0.408,0.65,0.721,1.238,1.117,1.763
			c1.564,2.073,3.116,4.157,4.744,6.178c2.057,2.553,3.921,5.214,5.218,8.244c0.1,0.232,0.282,0.429,0.46,0.694
			c1.546-0.258,3.047-0.517,4.551-0.758c1.499-0.24,3.041-0.086,4.544-0.373c0.262-0.965,0.144-1.821,0.052-2.672
			c-0.186-1.733-0.718-3.376-1.284-5.017c-0.825-2.39-1.653-4.782-2.352-7.211c-0.851-2.957-1.284-5.983-1.111-9.079
			C220.293,284.348,222.589,280.526,226.866,277.875z"/>
		<path d="M402.181,421.029c-5.787-7.622-13.739-11.061-23.045-11.853c-0.261-0.022-0.535,0.008-0.566,0.371
			c1.267,1.362,2.572,2.691,3.793,4.093c4.43,5.085,7.532,10.935,9.87,17.226c1.927,5.185,3.32,10.526,4.766,15.855
			c1.149,4.236,2.387,8.448,3.62,12.661c0.236,0.804,0.44,1.648,1.069,2.458c0.306-0.347,0.628-0.595,0.794-0.922
			c0.479-0.947,1.01-1.892,1.313-2.9c0.784-2.609,1.554-5.23,2.154-7.886c1.117-4.95,1.78-9.962,1.384-15.055
			C406.932,429.916,405.332,425.179,402.181,421.029z"/>
		<path d="M238.252,329.2c5.134,1.727,10.353,3.005,15.79,3.307c2.326,0.129,4.649,0.373,6.963,0.648
			c4.773,0.568,9.474,1.476,13.999,3.156c0.34,0.126,0.712,0.165,1.231,0.279c-0.307-5.227-2.135-9.887-3.488-14.887
			c-0.869,0.218-1.508,0.382-2.149,0.537c-5.568,1.348-11.17,1.708-16.848,0.73c-3.291-0.567-6.509-1.386-9.696-2.361
			c-3.056-0.935-6.109-1.883-9.182-2.762c-5.008-1.432-10.1-1.684-15.247-0.934c-0.497,0.072-1.032,0.082-1.434,0.537
			c0.157,0.195,0.256,0.37,0.401,0.491C224.498,322.824,230.953,326.745,238.252,329.2z"/>
		<path d="M189.188,416.729c-1.607-1.493-3.162-2.938-4.719-4.381c-0.046-0.043-0.11-0.082-0.17-0.092
			c-0.062-0.011-0.131,0.015-0.301,0.041c-0.192,0.251-0.443,0.553-0.666,0.874c-2.967,4.277-6.306,8.246-9.9,12.005
			c-0.966,1.01-1.972,1.983-2.92,3.009c-0.301,0.326-0.615,0.75-0.68,1.166c-0.383,2.449-1.251,4.757-1.965,7.109
			c-1.712,5.644-4.174,10.93-7.548,15.781c-0.251,0.361-0.45,0.759-0.673,1.139c0.443,0.296,0.717,0.036,1.004-0.092
			c1.457-0.653,2.91-1.314,4.367-1.968c5.78-2.594,11.273-5.71,16.636-9.071c0.937-0.587,1.592-1.3,2.002-2.363
			c2.037-5.29,3.719-10.68,4.719-16.266C188.782,421.333,189.08,419.028,189.188,416.729z"/>
		<path d="M135.33,462.605c3.289-5.585,6.969-10.889,11.406-15.63c2.184-2.334,4.435-4.611,6.735-6.831
			c2.924-2.822,5.967-5.522,8.891-8.345c3.306-3.193,6.54-6.46,9.789-9.712c0.235-0.235,0.702-0.421,0.467-0.992
			c-0.255,0.098-0.498,0.177-0.729,0.284c-2.836,1.319-5.65,2.688-8.509,3.953c-3.044,1.347-6.137,2.585-9.198,3.895
			c-6.562,2.81-12.933,5.989-18.937,9.87c-0.772,0.499-1.507,1.053-2.308,1.616c0.806,7.834,1.94,15.566,1.373,23.541
			C134.65,463.705,135.002,463.162,135.33,462.605z"/>
		<path d="M154.707,63.82c0.284-0.351,0.466-0.535,0.601-0.75c2.119-3.367,4.848-6.188,7.987-8.583
			c2.484-1.894,5.093-3.627,7.688-5.371c2.374-1.596,4.815-3.094,7.205-4.667c5.524-3.637,10.027-8.309,13.799-13.712
			c0.374-0.536,0.707-1.102,1.044-1.632c-0.51-0.54-1.063-0.506-1.582-0.452c-0.992,0.103-1.988,0.216-2.962,0.421
			c-4.638,0.975-9.127,2.432-13.462,4.34c-4.223,1.859-8.199,4.138-11.709,7.164c-3.115,2.685-5.613,5.851-7.36,9.591
			c-1.892,4.05-2.331,8.291-1.649,12.673C154.352,63.129,154.528,63.394,154.707,63.82z"/>
		<path d="M303.927,205.326c-4.825,3.94-8.082,8.955-10.176,15.295c0.701-0.335,1.047-0.487,1.38-0.663
			c1.766-0.932,3.501-1.924,5.296-2.795c6.083-2.951,12.516-4.872,19.087-6.367c1.303-0.296,2.55-0.658,3.722-1.355
			c1.022-0.609,2.154-1.046,3.266-1.487c2.722-1.08,5.461-2.116,8.191-3.174c2.73-1.058,5.461-2.115,8.186-3.186
			c0.413-0.162,0.795-0.401,1.189-0.603c-0.225-0.512-0.6-0.438-0.908-0.453c-5.198-0.258-10.313-1.191-15.453-1.907
			c-3.296-0.459-6.585-0.972-9.868-1.515c-0.786-0.13-1.409,0.025-2.064,0.438c-2.536,1.596-5.118,3.119-7.637,4.741
			C306.685,203.23,305.265,204.234,303.927,205.326z"/>
		<path d="M342.352,209.649c-5.309,0.959-10.626,1.874-15.941,2.802c-0.629,0.11-1.263,0.184-2.002,0.619
			c0.549,0.199,0.911,0.356,1.287,0.461c2.244,0.629,4.484,1.277,6.74,1.862c5.366,1.39,10.798,2.382,16.353,2.581
			c4.543,0.163,9.063-0.108,13.548-0.841c2.029-0.332,4.073-0.64,5.994-1.294c1.294-3.219,2.501-6.391,3.841-9.507
			c1.34-3.117,3.148-5.99,5.013-8.824c-0.105-0.091-0.209-0.183-0.314-0.274c-0.455,0.25-0.926,0.473-1.361,0.753
			c-3.542,2.284-7.306,4.123-11.221,5.67C357.196,206.46,349.839,208.296,342.352,209.649z"/>
		<path d="M287.018,225.591c1.064-0.855,2.124-1.513,2.898-2.327c0.263-1.107,0.439-2.092,0.732-3.042
			c2.709-8.783,7.91-15.604,15.985-20.118c1.857-1.038,3.794-1.935,5.688-2.908c0.198-0.102,0.358-0.279,0.84-0.667
			c-1.43-0.068-2.473-0.133-3.516-0.165c-4.744-0.143-9.458,0.079-14.068,1.321c-8.051,2.168-14.418,6.691-18.988,13.693
			c-0.469,0.718-0.929,1.447-1.246,2.385C279.863,217.035,283.563,221.1,287.018,225.591z"/>
		<path d="M179.571,412.16c0.19-0.198,0.303-0.471,0.474-0.744c-0.209-0.053-0.279-0.096-0.335-0.081
			c-0.643,0.168-1.286,0.336-1.924,0.52c-4.309,1.245-8.68,1.999-13.192,1.867c-3.547-0.103-7.022-0.624-10.455-1.485
			c-0.694-0.174-1.393-0.326-2.123-0.495c-5.277,8.093-11.832,14.846-19.339,20.655c-0.039,2.086-0.163,4.065,0.234,6.324
			c0.456-0.292,0.69-0.413,0.89-0.575c5-4.049,10.517-7.257,16.346-9.931c4.355-1.998,8.781-3.842,13.142-5.827
			c2.784-1.267,5.551-2.587,8.249-4.026C174.551,416.755,177.201,414.624,179.571,412.16z"/>
		<path d="M90.606,423.568c5.462-2.21,10.612-4.977,15.304-8.562c0.449-0.343,0.864-0.728,1.296-1.093
			c-0.043-0.07-0.086-0.141-0.13-0.211c-2.323,0.937-4.623,1.939-6.976,2.794c-2.314,0.84-4.66,1.616-7.035,2.262
			c-2.439,0.663-4.915,1.223-7.403,1.666c-2.489,0.443-5.005,0.783-7.525,0.987c-2.453,0.198-4.926,0.262-7.387,0.21
			c-2.52-0.054-5.036-0.322-7.478-0.491c-3.041,3.353-6.078,6.537-8.917,9.889c-2.019,2.384-3.778,4.99-5.628,7.515
			c-0.193,0.264-0.564,0.571-0.185,1.143c1.505-0.67,3.089-1.115,4.563-1.902c2.055-1.098,4.143-2.141,6.259-3.116
			c5.153-2.374,10.518-4.181,15.925-5.87C80.441,427.177,85.599,425.594,90.606,423.568z"/>
		<path d="M165.978,432.73c-0.338,0.206-0.524,0.281-0.663,0.409c-4.417,4.05-8.852,8.081-13.236,12.166
			c-7.162,6.672-12.954,14.468-18.386,22.556c-0.714,1.063-0.992,2.234-1.079,3.513c0.184-0.028,0.27-0.015,0.313-0.051
			c0.201-0.171,0.407-0.34,0.581-0.537c2.669-3.022,5.808-5.485,9.22-7.593c4.133-2.554,8.265-5.119,12.629-7.27
			c1.063-0.524,1.798-1.255,2.404-2.271c3.748-6.285,6.362-13.02,8.128-20.102C165.942,433.335,165.939,433.106,165.978,432.73z"/>
		<path d="M256.865,273.213c-1.329,0.052-2.675,0.022-3.983,0.223c-2.695,0.413-5.387,0.879-8.05,1.464
			c-4.161,0.913-8.31,1.917-12.246,3.585c-1.647,0.698-3.249,1.54-4.775,2.474c-1.677,1.025-2.929,2.502-3.731,4.322
			c-0.093,0.211-0.34,0.449,0.026,0.697c0.908-0.648,1.794-1.353,2.75-1.942c1.017-0.627,2.07-1.217,3.162-1.698
			c5.198-2.288,10.65-2.777,16.235-2.137c0.986,0.113,1.978,0.318,2.923,0.62c2.182,0.696,3.006,2.01,2.555,4.273
			c-0.257,1.292-0.78,2.537-1.241,3.782c-0.346,0.934-0.8,1.828-1.173,2.753c-0.373,0.927-0.555,1.892-0.471,3.212
			c2.681-1.191,4.752-2.705,6.639-4.505c3.087-2.944,4.763-6.515,4.909-10.796c0.051-1.482-0.108-2.923-0.648-4.311
			C259.236,273.914,258.326,273.156,256.865,273.213z"/>
		<path d="M244.253,296.034c0.445-0.03,0.88-0.189,1.325-0.289c0.048-0.357,0.121-0.618,0.113-0.877
			c-0.066-2.12,0.541-4.076,1.411-5.975c0.416-0.908,0.814-1.825,1.182-2.753c0.267-0.674,0.491-1.369,0.377-2.086
			c-5.699-2.769-18.766-0.249-24.377,4.68c0.104,0.158,0.18,0.354,0.321,0.477C230.231,294.136,236.741,296.537,244.253,296.034z"/>
		<path d="M191.854,418.543c-0.163,1.061-0.303,2.047-0.469,3.027c-0.167,0.984-0.341,1.968-0.547,2.945
			c-0.206,0.977-0.437,1.949-0.689,2.915c-0.252,0.966-0.525,1.927-0.824,2.879c-0.299,0.952-0.629,1.895-0.968,2.834
			c-0.339,0.939-0.716,1.864-1.058,2.802c-0.331,0.906-0.903,1.736-1.05,2.841c5.396-3.077,13.567-12.131,15.179-17.388
			c-1.622-0.342-3.275-0.584-4.859-1.054C194.994,419.876,193.488,419.178,191.854,418.543z"/>
		<path d="M334.339,207.886c0.551,0,0.741,0.027,0.922-0.004c3.608-0.629,7.223-1.227,10.822-1.907
			c6.162-1.164,12.206-2.782,18.1-4.934c0.578-0.211,1.264-0.274,1.712-0.903c-0.262,0-0.463-0.024-0.656,0.004
			c-3.369,0.482-6.755,0.737-10.158,0.724c-2.466-0.009-4.933-0.008-7.398-0.067c-0.9-0.021-1.655,0.14-2.411,0.694
			c-2.963,2.171-6.134,4.004-9.467,5.555C335.398,207.236,335.025,207.491,334.339,207.886z"/>
		<path d="M279.583,334.162c2.917-3.321,4.917-11.988,2.793-16.406c-2.433,1.047-4.867,2.094-7.299,3.145
			c-0.119,0.052-0.23,0.13-0.333,0.211c-0.046,0.037-0.062,0.112-0.124,0.233c0.948,2.058,2.019,4.117,2.853,6.268
			C278.3,329.746,278.889,331.972,279.583,334.162z"/>
	</g>
</g>
</svg>
